<svg xmlns="http://www.w3.org/2000/svg" viewBox="0 0 701 596" width="701" height="596" role="img" aria-label="cozumebak">
<g transform="translate(200.3,80) scale(0.58594)"><path d="M482.0,256.0C482.0,284.4 481.9,322.5 481.7,341.2C481.4,359.9 481.1,360.5 480.6,368.2C480.2,375.9 479.6,381.8 478.9,387.6C478.2,393.4 477.4,398.4 476.4,403.1C475.5,407.9 474.5,412.1 473.3,416.1C472.1,420.2 470.8,423.8 469.4,427.3C467.9,430.7 466.4,433.9 464.7,436.9C463.0,440.0 461.1,442.7 459.1,445.4C457.2,448.0 455.0,450.5 452.7,452.7C450.5,455.0 448.0,457.2 445.4,459.1C442.7,461.1 440.0,463.0 436.9,464.7C433.9,466.4 430.7,467.9 427.3,469.4C423.8,470.8 420.2,472.1 416.1,473.3C412.1,474.5 407.9,475.5 403.1,476.4C398.4,477.4 393.4,478.2 387.6,478.9C381.8,479.6 375.9,480.2 368.2,480.6C360.5,481.1 359.9,481.4 341.2,481.7C322.5,481.9 284.4,482.0 256.0,482.0C227.6,482.0 189.5,481.9 170.8,481.7C152.1,481.4 151.5,481.1 143.8,480.6C136.1,480.2 130.2,479.6 124.4,478.9C118.6,478.2 113.6,477.4 108.9,476.4C104.1,475.5 99.9,474.5 95.9,473.3C91.8,472.1 88.2,470.8 84.7,469.4C81.3,467.9 78.1,466.4 75.1,464.7C72.0,463.0 69.3,461.1 66.6,459.1C64.0,457.2 61.5,455.0 59.3,452.7C57.0,450.5 54.8,448.0 52.9,445.4C50.9,442.7 49.0,440.0 47.3,436.9C45.6,433.9 44.1,430.7 42.6,427.3C41.2,423.8 39.9,420.2 38.7,416.1C37.5,412.1 36.5,407.9 35.6,403.1C34.6,398.4 33.8,393.4 33.1,387.6C32.4,381.8 31.8,375.9 31.4,368.2C30.9,360.5 30.6,359.9 30.3,341.2C30.1,322.5 30.0,284.4 30.0,256.0C30.0,227.6 30.1,189.5 30.3,170.8C30.6,152.1 30.9,151.5 31.4,143.8C31.8,136.1 32.4,130.2 33.1,124.4C33.8,118.6 34.6,113.6 35.6,108.9C36.5,104.1 37.5,99.9 38.7,95.9C39.9,91.8 41.2,88.2 42.6,84.7C44.1,81.3 45.6,78.1 47.3,75.1C49.0,72.0 50.9,69.3 52.9,66.6C54.8,64.0 57.0,61.5 59.3,59.3C61.5,57.0 64.0,54.8 66.6,52.9C69.3,50.9 72.0,49.0 75.1,47.3C78.1,45.6 81.3,44.1 84.7,42.6C88.2,41.2 91.8,39.9 95.9,38.7C99.9,37.5 104.1,36.5 108.9,35.6C113.6,34.6 118.6,33.8 124.4,33.1C130.2,32.4 136.1,31.8 143.8,31.4C151.5,30.9 152.1,30.6 170.8,30.3C189.5,30.1 227.6,30.0 256.0,30.0C284.4,30.0 322.5,30.1 341.2,30.3C359.9,30.6 360.5,30.9 368.2,31.4C375.9,31.8 381.8,32.4 387.6,33.1C393.4,33.8 398.4,34.6 403.1,35.6C407.9,36.5 412.1,37.5 416.1,38.7C420.2,39.9 423.8,41.2 427.3,42.6C430.7,44.1 433.9,45.6 436.9,47.3C440.0,49.0 442.7,50.9 445.4,52.9C448.0,54.8 450.5,57.0 452.7,59.3C455.0,61.5 457.2,64.0 459.1,66.6C461.1,69.3 463.0,72.0 464.7,75.1C466.4,78.1 467.9,81.3 469.4,84.7C470.8,88.2 472.1,91.8 473.3,95.9C474.5,99.9 475.5,104.1 476.4,108.9C477.4,113.6 478.2,118.6 478.9,124.4C479.6,130.2 480.2,136.1 480.6,143.8C481.1,151.5 481.4,152.1 481.7,170.8C481.9,189.5 482.0,227.6 482.0,256.0Z" fill="#FBF8F1" stroke="#0E1B33" stroke-width="7"/><defs><clipPath id="icv1"><path d="M482.0,256.0C482.0,284.4 481.9,322.5 481.7,341.2C481.4,359.9 481.1,360.5 480.6,368.2C480.2,375.9 479.6,381.8 478.9,387.6C478.2,393.4 477.4,398.4 476.4,403.1C475.5,407.9 474.5,412.1 473.3,416.1C472.1,420.2 470.8,423.8 469.4,427.3C467.9,430.7 466.4,433.9 464.7,436.9C463.0,440.0 461.1,442.7 459.1,445.4C457.2,448.0 455.0,450.5 452.7,452.7C450.5,455.0 448.0,457.2 445.4,459.1C442.7,461.1 440.0,463.0 436.9,464.7C433.9,466.4 430.7,467.9 427.3,469.4C423.8,470.8 420.2,472.1 416.1,473.3C412.1,474.5 407.9,475.5 403.1,476.4C398.4,477.4 393.4,478.2 387.6,478.9C381.8,479.6 375.9,480.2 368.2,480.6C360.5,481.1 359.9,481.4 341.2,481.7C322.5,481.9 284.4,482.0 256.0,482.0C227.6,482.0 189.5,481.9 170.8,481.7C152.1,481.4 151.5,481.1 143.8,480.6C136.1,480.2 130.2,479.6 124.4,478.9C118.6,478.2 113.6,477.4 108.9,476.4C104.1,475.5 99.9,474.5 95.9,473.3C91.8,472.1 88.2,470.8 84.7,469.4C81.3,467.9 78.1,466.4 75.1,464.7C72.0,463.0 69.3,461.1 66.6,459.1C64.0,457.2 61.5,455.0 59.3,452.7C57.0,450.5 54.8,448.0 52.9,445.4C50.9,442.7 49.0,440.0 47.3,436.9C45.6,433.9 44.1,430.7 42.6,427.3C41.2,423.8 39.9,420.2 38.7,416.1C37.5,412.1 36.5,407.9 35.6,403.1C34.6,398.4 33.8,393.4 33.1,387.6C32.4,381.8 31.8,375.9 31.4,368.2C30.9,360.5 30.6,359.9 30.3,341.2C30.1,322.5 30.0,284.4 30.0,256.0C30.0,227.6 30.1,189.5 30.3,170.8C30.6,152.1 30.9,151.5 31.4,143.8C31.8,136.1 32.4,130.2 33.1,124.4C33.8,118.6 34.6,113.6 35.6,108.9C36.5,104.1 37.5,99.9 38.7,95.9C39.9,91.8 41.2,88.2 42.6,84.7C44.1,81.3 45.6,78.1 47.3,75.1C49.0,72.0 50.9,69.3 52.9,66.6C54.8,64.0 57.0,61.5 59.3,59.3C61.5,57.0 64.0,54.8 66.6,52.9C69.3,50.9 72.0,49.0 75.1,47.3C78.1,45.6 81.3,44.1 84.7,42.6C88.2,41.2 91.8,39.9 95.9,38.7C99.9,37.5 104.1,36.5 108.9,35.6C113.6,34.6 118.6,33.8 124.4,33.1C130.2,32.4 136.1,31.8 143.8,31.4C151.5,30.9 152.1,30.6 170.8,30.3C189.5,30.1 227.6,30.0 256.0,30.0C284.4,30.0 322.5,30.1 341.2,30.3C359.9,30.6 360.5,30.9 368.2,31.4C375.9,31.8 381.8,32.4 387.6,33.1C393.4,33.8 398.4,34.6 403.1,35.6C407.9,36.5 412.1,37.5 416.1,38.7C420.2,39.9 423.8,41.2 427.3,42.6C430.7,44.1 433.9,45.6 436.9,47.3C440.0,49.0 442.7,50.9 445.4,52.9C448.0,54.8 450.5,57.0 452.7,59.3C455.0,61.5 457.2,64.0 459.1,66.6C461.1,69.3 463.0,72.0 464.7,75.1C466.4,78.1 467.9,81.3 469.4,84.7C470.8,88.2 472.1,91.8 473.3,95.9C474.5,99.9 475.5,104.1 476.4,108.9C477.4,113.6 478.2,118.6 478.9,124.4C479.6,130.2 480.2,136.1 480.6,143.8C481.1,151.5 481.4,152.1 481.7,170.8C481.9,189.5 482.0,227.6 482.0,256.0Z"/></clipPath></defs><g clip-path="url(#icv1)"><line x1="90" y1="188" x2="422" y2="188" stroke="#0E1B33" stroke-width="5" stroke-dasharray="9 13" stroke-linecap="round" opacity="0.55"/><path d="M118,386 C196,386 236,188 300,188 C352,188 372,266 410,300" fill="none" stroke="#E5492B" stroke-width="18" stroke-linecap="round" stroke-linejoin="round"/></g><circle cx="300" cy="188" r="13" fill="#0E1B33"/></g><g transform="translate(80.00,500.96) scale(0.10129,-0.10129)"><g transform="translate(-43.00,0)"><g fill="#0E1B33"><path transform="translate(0.00,0)" d="M303.25 537.5Q357.25 537.5 399.0 526.0Q440.75 514.5 464.5 494.25Q488.25 474 488.25 447Q488.25 430.25 477.875 415.5Q467.5 400.75 448.25 400.75Q433.5 400.75 424.0 405.625Q414.5 410.5 406.75 417.875Q399 425.25 387 431.5Q376 437.75 354.25 441.625Q332.5 445.5 315.75 445.5Q263 445.5 224.375 421.5Q185.75 397.5 164.375 356.75Q143 316 143 263.5Q143 211.5 164.25 170.625Q185.5 129.75 223.25 105.875Q261 82 310.5 82Q340.5 82 359.875 86.375Q379.25 90.75 392.5 97.75Q408.25 106.75 418.5 116.25Q428.75 125.75 448 125.75Q469.5 125.75 481.125 112.125Q492.75 98.5 492.75 78.5Q492.75 56.75 466.25 36.5Q439.75 16.25 395.75 3.125Q351.75 -10 298.5 -10Q221 -10 163.5 26.0Q106 62 74.5 124.125Q43 186.25 43 263.5Q43 342.5 76.0 404.25Q109 466 167.75 501.75Q226.5 537.5 303.25 537.5ZM244.0 -148.5Q235.25 -148.5 221.5 -143.5Q207.75 -138.5 197.125 -129.125Q186.5 -119.75 186.5 -107.25Q186.5 -93.75 196.75 -81.25L277.75 25.0H338.0L280.0 -120.75Q269.25 -148.5 244.0 -148.5Z"/><path transform="translate(509.00,0)" d="M574.25 263.25Q574.25 183.25 538.875 121.5Q503.5 59.75 443.5 24.875Q383.5 -10 308.75 -10Q234.25 -10 174.125 24.875Q114 59.75 78.5 121.5Q43 183.25 43 263.25Q43 343.5 78.5 405.25Q114 467 174.125 502.25Q234.25 537.5 308.75 537.5Q383.5 537.5 443.5 502.25Q503.5 467 538.875 405.25Q574.25 343.5 574.25 263.25ZM474.25 263.25Q474.25 317.75 452.25 358.5Q430.25 399.25 392.75 422.375Q355.25 445.5 308.75 445.5Q262.5 445.5 224.875 422.375Q187.25 399.25 165.125 358.5Q143 317.75 143 263.25Q143 209.75 165.125 169.0Q187.25 128.25 224.875 105.125Q262.5 82 308.75 82Q355.25 82 392.75 105.125Q430.25 128.25 452.25 169.0Q474.25 209.75 474.25 263.25ZM402.0 602.25Q374.75 602.25 361.875 613.375Q349.0 624.5 349.0 648.75V664.25Q349.0 690.0 363.125 700.375Q377.25 710.75 403.75 710.75Q432.0 710.75 445.25 700.0Q458.5 689.25 458.5 664.25V648.75Q458.5 622.25 444.875 612.25Q431.25 602.25 402.0 602.25ZM212.0 602.25Q184.75 602.25 171.875 613.375Q159.0 624.5 159.0 648.75V664.25Q159.0 689.25 172.75 700.0Q186.5 710.75 212.25 710.75Q242.0 710.75 255.25 700.375Q268.5 690.0 268.5 664.25V648.75Q268.5 622.25 254.875 612.25Q241.25 602.25 212.0 602.25Z"/><path transform="translate(1116.00,0)" d="M403.75 92Q423.75 92 437.25 78.875Q450.75 65.75 450.75 46Q450.75 26.75 437.25 13.375Q423.75 0 403.75 0H80.75Q59.5 0 46.875 15.375Q34.25 30.75 35 45.5Q35.75 57.75 38.375 67.125Q41 76.5 50.5 88.5L317.75 443L317.5 430.5H95Q75 430.5 61.5 444.0Q48 457.5 48 477.25Q48 496.5 61.5 509.5Q75 522.5 95 522.5H402.5Q421.75 522.5 435.125 508.25Q448.5 494 447.25 472.5Q446.5 464 444.25 455.625Q442 447.25 433.25 436L169.5 86.25L165.75 92Z"/><path transform="translate(1588.00,0)" d="M461.5 526Q483.25 526 497.375 511.375Q511.5 496.75 511.5 475.25V212Q511.5 108.25 453.625 49.625Q395.75 -9 290 -9Q184.5 -9 127.0 49.625Q69.5 108.25 69.5 212V475.25Q69.5 496.75 83.75 511.375Q98 526 119.5 526Q141.25 526 155.375 511.375Q169.5 496.75 169.5 475.25V212Q169.5 147.25 200.375 115.125Q231.25 83 290 83Q349.75 83 380.625 115.125Q411.5 147.25 411.5 212V475.25Q411.5 496.75 425.625 511.375Q439.75 526 461.5 526ZM384.25 599.75Q357.0 599.75 344.125 610.875Q331.25 622.0 331.25 646.25V661.75Q331.25 687.5 345.375 697.875Q359.5 708.25 386.0 708.25Q414.25 708.25 427.5 697.5Q440.75 686.75 440.75 661.75V646.25Q440.75 619.75 427.125 609.75Q413.5 599.75 384.25 599.75ZM194.25 599.75Q167.0 599.75 154.125 610.875Q141.25 622.0 141.25 646.25V661.75Q141.25 686.75 155.0 697.5Q168.75 708.25 194.5 708.25Q224.25 708.25 237.5 697.875Q250.75 687.5 250.75 661.75V646.25Q250.75 619.75 237.125 609.75Q223.5 599.75 194.25 599.75Z"/><path transform="translate(2159.00,0)" d="M333.5 535Q407.5 535 447.625 498.5Q487.75 462 501 400L485 404.5L492.25 421.25Q504.5 446.75 531.375 473.125Q558.25 499.5 595.0 517.25Q631.75 535 674.25 535Q743.25 535 781.125 505.25Q819 475.5 834.125 426.0Q849.25 376.5 849.25 315.5V50.75Q849.25 29.25 835.125 14.625Q821 0 799.25 0Q777.5 0 763.375 14.625Q749.25 29.25 749.25 50.75V314.5Q749.25 350.25 739.625 379.25Q730 408.25 706.625 425.625Q683.25 443 641.75 443Q602.5 443 572.0 425.625Q541.5 408.25 524.75 379.25Q508 350.25 508 314.5V50.75Q508 29.25 493.875 14.625Q479.75 0 458 0Q436.25 0 422.125 14.625Q408 29.25 408 50.75V315.75Q408 351.25 398.625 379.875Q389.25 408.5 366.25 425.75Q343.25 443 302 443Q263 443 232.875 425.75Q202.75 408.5 186.125 379.875Q169.5 351.25 169.5 315.75V50.75Q169.5 29.25 155.25 14.625Q141 0 119.5 0Q97.75 0 83.625 14.625Q69.5 29.25 69.5 50.75V475.25Q69.5 496.75 83.75 511.375Q98 526 119.5 526Q141.25 526 155.375 511.375Q169.5 496.75 169.5 475.25V415.75L150.75 405.25Q157.5 426.75 173.75 449.625Q190 472.5 214.375 491.875Q238.75 511.25 268.875 523.125Q299 535 333.5 535Z"/><path transform="translate(3068.00,0)" d="M314.75 -10Q232.25 -10 171.0 24.625Q109.75 59.25 76.375 119.625Q43 180 43 257.5Q43 346 78.5 408.375Q114 470.75 171.125 504.125Q228.25 537.5 292.25 537.5Q341 537.5 385.125 518.375Q429.25 499.25 463.375 464.75Q497.5 430.25 517.75 383.625Q538 337 538.5 281.75Q537.75 261.75 522.75 248.875Q507.75 236 487.75 236H99.25L75.25 320.5H451.25L432.25 303.25V328Q429.5 363 408.5 389.25Q387.5 415.5 356.875 430.25Q326.25 445 292.25 445Q262.25 445 234.5 435.625Q206.75 426.25 185.5 405.125Q164.25 384 151.625 349.5Q139 315 139 264.25Q139 208.5 162.0 167.625Q185 126.75 223.75 104.375Q262.5 82 310.25 82Q346.5 82 370.5 89.375Q394.5 96.75 410.625 107.875Q426.75 119 438.75 129Q454.25 138 468.5 138Q486.75 138 498.875 125.375Q511 112.75 511 96Q511 74 489 56.25Q461.75 29.75 414.375 9.875Q367 -10 314.75 -10Z"/></g><g fill="#E5492B"><path transform="translate(3640.00,0)" d="M335.25 537.5Q404.5 537.5 459.125 502.5Q513.75 467.5 545.75 406.375Q577.75 345.25 577.75 264.75Q577.75 184.5 545.75 122.625Q513.75 60.75 459.75 25.375Q405.75 -10 338.25 -10Q300 -10 266.125 2.25Q232.25 14.5 205.875 34.125Q179.5 53.75 163.25 75.75Q147 97.75 143 116.5L169.5 129.75V43.25Q169.5 21.75 155.375 7.125Q141.25 -7.5 119.5 -7.5Q98 -7.5 83.75 6.75Q69.5 21 69.5 43.25V689Q69.5 710.5 83.625 725.125Q97.75 739.75 119.5 739.75Q141.25 739.75 155.375 725.125Q169.5 710.5 169.5 689V408L153.5 416.5Q157 435.5 172.75 456.375Q188.5 477.25 213.25 495.875Q238 514.5 269.375 526.0Q300.75 537.5 335.25 537.5ZM323.5 445.5Q276.25 445.5 240.625 421.875Q205 398.25 184.875 357.625Q164.75 317 164.75 264.75Q164.75 213.25 184.875 171.5Q205 129.75 240.625 105.875Q276.25 82 323.5 82Q370.5 82 405.75 106.0Q441 130 461.25 171.75Q481.5 213.5 481.5 264.75Q481.5 317 461.25 357.625Q441 398.25 405.75 421.875Q370.5 445.5 323.5 445.5Z"/><path transform="translate(4251.00,0)" d="M501.25 533.5Q523 533.5 537.125 519.25Q551.25 505 551.25 482.75V50.75Q551.25 29.25 537.0 14.625Q522.75 0 501.25 0Q479.5 0 465.375 14.625Q451.25 29.25 451.25 50.75V123L471.75 119.5Q471.75 101.75 457.25 79.625Q442.75 57.5 417.75 37.25Q392.75 17 358.875 3.5Q325 -10 285.5 -10Q217 -10 161.875 25.375Q106.75 60.75 74.875 122.625Q43 184.5 43 264Q43 344.5 75.0 406.0Q107 467.5 161.375 502.5Q215.75 537.5 282.5 537.5Q325.5 537.5 362.0 523.875Q398.5 510.25 425.5 488.25Q452.5 466.25 467.375 441.5Q482.25 416.75 482.25 395.25L451.25 391.75V482.75Q451.25 504.25 465.375 518.875Q479.5 533.5 501.25 533.5ZM297.25 82Q344.25 82 380.0 105.875Q415.75 129.75 435.875 171.125Q456 212.5 456 264Q456 315.5 435.875 356.625Q415.75 397.75 380.0 421.625Q344.25 445.5 297.25 445.5Q251.25 445.5 215.5 421.875Q179.75 398.25 159.5 357.25Q139.25 316.25 139.25 264Q139.25 212.5 159.375 171.125Q179.5 129.75 215.25 105.875Q251 82 297.25 82Z"/><path transform="translate(4862.00,0)" d="M128.25 0Q106.5 0 92.375 14.625Q78.25 29.25 78.25 50.75V689.25Q78.25 710.75 92.375 725.375Q106.5 740 128.25 740Q150 740 164.125 725.375Q178.25 710.75 178.25 689.25V50.75Q178.25 29.25 164.125 14.625Q150 0 128.25 0ZM453.5 527.5Q472.75 527.5 487.0 511.75Q501.25 496 501.25 480.25Q501.25 460 481.5 442.75L169 162.75L164.75 278.25L417.25 511.75Q433 527.5 453.5 527.5ZM466.25 0.75Q444.75 0.75 429.5 17.5L230.25 229L306 298.5L501.25 87.5Q517 71 517 50Q517 28 499.625 14.375Q482.25 0.75 466.25 0.75Z"/></g></g></g>
</svg>
