<svg xmlns="http://www.w3.org/2000/svg" viewBox="0 0 512 512" width="512" height="512" role="img" aria-label="cozumebak">
  <path d="M482.0,256.0C482.0,284.4 481.9,322.5 481.7,341.2C481.4,359.9 481.1,360.5 480.6,368.2C480.2,375.9 479.6,381.8 478.9,387.6C478.2,393.4 477.4,398.4 476.4,403.1C475.5,407.9 474.5,412.1 473.3,416.1C472.1,420.2 470.8,423.8 469.4,427.3C467.9,430.7 466.4,433.9 464.7,436.9C463.0,440.0 461.1,442.7 459.1,445.4C457.2,448.0 455.0,450.5 452.7,452.7C450.5,455.0 448.0,457.2 445.4,459.1C442.7,461.1 440.0,463.0 436.9,464.7C433.9,466.4 430.7,467.9 427.3,469.4C423.8,470.8 420.2,472.1 416.1,473.3C412.1,474.5 407.9,475.5 403.1,476.4C398.4,477.4 393.4,478.2 387.6,478.9C381.8,479.6 375.9,480.2 368.2,480.6C360.5,481.1 359.9,481.4 341.2,481.7C322.5,481.9 284.4,482.0 256.0,482.0C227.6,482.0 189.5,481.9 170.8,481.7C152.1,481.4 151.5,481.1 143.8,480.6C136.1,480.2 130.2,479.6 124.4,478.9C118.6,478.2 113.6,477.4 108.9,476.4C104.1,475.5 99.9,474.5 95.9,473.3C91.8,472.1 88.2,470.8 84.7,469.4C81.3,467.9 78.1,466.4 75.1,464.7C72.0,463.0 69.3,461.1 66.6,459.1C64.0,457.2 61.5,455.0 59.3,452.7C57.0,450.5 54.8,448.0 52.9,445.4C50.9,442.7 49.0,440.0 47.3,436.9C45.6,433.9 44.1,430.7 42.6,427.3C41.2,423.8 39.9,420.2 38.7,416.1C37.5,412.1 36.5,407.9 35.6,403.1C34.6,398.4 33.8,393.4 33.1,387.6C32.4,381.8 31.8,375.9 31.4,368.2C30.9,360.5 30.6,359.9 30.3,341.2C30.1,322.5 30.0,284.4 30.0,256.0C30.0,227.6 30.1,189.5 30.3,170.8C30.6,152.1 30.9,151.5 31.4,143.8C31.8,136.1 32.4,130.2 33.1,124.4C33.8,118.6 34.6,113.6 35.6,108.9C36.5,104.1 37.5,99.9 38.7,95.9C39.9,91.8 41.2,88.2 42.6,84.7C44.1,81.3 45.6,78.1 47.3,75.1C49.0,72.0 50.9,69.3 52.9,66.6C54.8,64.0 57.0,61.5 59.3,59.3C61.5,57.0 64.0,54.8 66.6,52.9C69.3,50.9 72.0,49.0 75.1,47.3C78.1,45.6 81.3,44.1 84.7,42.6C88.2,41.2 91.8,39.9 95.9,38.7C99.9,37.5 104.1,36.5 108.9,35.6C113.6,34.6 118.6,33.8 124.4,33.1C130.2,32.4 136.1,31.8 143.8,31.4C151.5,30.9 152.1,30.6 170.8,30.3C189.5,30.1 227.6,30.0 256.0,30.0C284.4,30.0 322.5,30.1 341.2,30.3C359.9,30.6 360.5,30.9 368.2,31.4C375.9,31.8 381.8,32.4 387.6,33.1C393.4,33.8 398.4,34.6 403.1,35.6C407.9,36.5 412.1,37.5 416.1,38.7C420.2,39.9 423.8,41.2 427.3,42.6C430.7,44.1 433.9,45.6 436.9,47.3C440.0,49.0 442.7,50.9 445.4,52.9C448.0,54.8 450.5,57.0 452.7,59.3C455.0,61.5 457.2,64.0 459.1,66.6C461.1,69.3 463.0,72.0 464.7,75.1C466.4,78.1 467.9,81.3 469.4,84.7C470.8,88.2 472.1,91.8 473.3,95.9C474.5,99.9 475.5,104.1 476.4,108.9C477.4,113.6 478.2,118.6 478.9,124.4C479.6,130.2 480.2,136.1 480.6,143.8C481.1,151.5 481.4,152.1 481.7,170.8C481.9,189.5 482.0,227.6 482.0,256.0Z" fill="#FBF8F1" stroke="#0E1B33" stroke-width="7"/>
  <defs><clipPath id="b"><path d="M482.0,256.0C482.0,284.4 481.9,322.5 481.7,341.2C481.4,359.9 481.1,360.5 480.6,368.2C480.2,375.9 479.6,381.8 478.9,387.6C478.2,393.4 477.4,398.4 476.4,403.1C475.5,407.9 474.5,412.1 473.3,416.1C472.1,420.2 470.8,423.8 469.4,427.3C467.9,430.7 466.4,433.9 464.7,436.9C463.0,440.0 461.1,442.7 459.1,445.4C457.2,448.0 455.0,450.5 452.7,452.7C450.5,455.0 448.0,457.2 445.4,459.1C442.7,461.1 440.0,463.0 436.9,464.7C433.9,466.4 430.7,467.9 427.3,469.4C423.8,470.8 420.2,472.1 416.1,473.3C412.1,474.5 407.9,475.5 403.1,476.4C398.4,477.4 393.4,478.2 387.6,478.9C381.8,479.6 375.9,480.2 368.2,480.6C360.5,481.1 359.9,481.4 341.2,481.7C322.5,481.9 284.4,482.0 256.0,482.0C227.6,482.0 189.5,481.9 170.8,481.7C152.1,481.4 151.5,481.1 143.8,480.6C136.1,480.2 130.2,479.6 124.4,478.9C118.6,478.2 113.6,477.4 108.9,476.4C104.1,475.5 99.9,474.5 95.9,473.3C91.8,472.1 88.2,470.8 84.7,469.4C81.3,467.9 78.1,466.4 75.1,464.7C72.0,463.0 69.3,461.1 66.6,459.1C64.0,457.2 61.5,455.0 59.3,452.7C57.0,450.5 54.8,448.0 52.9,445.4C50.9,442.7 49.0,440.0 47.3,436.9C45.6,433.9 44.1,430.7 42.6,427.3C41.2,423.8 39.9,420.2 38.7,416.1C37.5,412.1 36.5,407.9 35.6,403.1C34.6,398.4 33.8,393.4 33.1,387.6C32.4,381.8 31.8,375.9 31.4,368.2C30.9,360.5 30.6,359.9 30.3,341.2C30.1,322.5 30.0,284.4 30.0,256.0C30.0,227.6 30.1,189.5 30.3,170.8C30.6,152.1 30.9,151.5 31.4,143.8C31.8,136.1 32.4,130.2 33.1,124.4C33.8,118.6 34.6,113.6 35.6,108.9C36.5,104.1 37.5,99.9 38.7,95.9C39.9,91.8 41.2,88.2 42.6,84.7C44.1,81.3 45.6,78.1 47.3,75.1C49.0,72.0 50.9,69.3 52.9,66.6C54.8,64.0 57.0,61.5 59.3,59.3C61.5,57.0 64.0,54.8 66.6,52.9C69.3,50.9 72.0,49.0 75.1,47.3C78.1,45.6 81.3,44.1 84.7,42.6C88.2,41.2 91.8,39.9 95.9,38.7C99.9,37.5 104.1,36.5 108.9,35.6C113.6,34.6 118.6,33.8 124.4,33.1C130.2,32.4 136.1,31.8 143.8,31.4C151.5,30.9 152.1,30.6 170.8,30.3C189.5,30.1 227.6,30.0 256.0,30.0C284.4,30.0 322.5,30.1 341.2,30.3C359.9,30.6 360.5,30.9 368.2,31.4C375.9,31.8 381.8,32.4 387.6,33.1C393.4,33.8 398.4,34.6 403.1,35.6C407.9,36.5 412.1,37.5 416.1,38.7C420.2,39.9 423.8,41.2 427.3,42.6C430.7,44.1 433.9,45.6 436.9,47.3C440.0,49.0 442.7,50.9 445.4,52.9C448.0,54.8 450.5,57.0 452.7,59.3C455.0,61.5 457.2,64.0 459.1,66.6C461.1,69.3 463.0,72.0 464.7,75.1C466.4,78.1 467.9,81.3 469.4,84.7C470.8,88.2 472.1,91.8 473.3,95.9C474.5,99.9 475.5,104.1 476.4,108.9C477.4,113.6 478.2,118.6 478.9,124.4C479.6,130.2 480.2,136.1 480.6,143.8C481.1,151.5 481.4,152.1 481.7,170.8C481.9,189.5 482.0,227.6 482.0,256.0Z"/></clipPath></defs>
  <g clip-path="url(#b)"><line x1="90" y1="188" x2="422" y2="188" stroke="#0E1B33" stroke-width="5" stroke-dasharray="9 13" stroke-linecap="round" opacity="0.55"/><path d="M118,386 C196,386 236,188 300,188 C352,188 372,266 410,300" fill="none" stroke="#E5492B" stroke-width="18" stroke-linecap="round" stroke-linejoin="round"/></g>
  <circle cx="300" cy="188" r="13" fill="#0E1B33"/>
</svg>
